<svg width="252" height="48" viewBox="0 0 252 48" fill="none" xmlns="http://www.w3.org/2000/svg">
<g clip-path="url(#clip0_90_689)">
<path d="M96.6489 30.9201C96.6489 23.2081 100.067 18.791 106.056 18.791C109.831 18.791 111.869 20.3058 112.271 23.3803H112.716V9.69502H117.425V42.1816L113.21 42.3985L112.811 38.6114H112.279C111.968 41.2555 109.57 42.5982 106.021 42.5982C100.074 42.6154 96.6489 38.4565 96.6489 30.9201ZM112.723 29.2641C112.723 24.8435 110.723 22.678 106.727 22.678C103.266 22.678 101.312 25.6663 101.312 30.9098C101.312 36.074 103.174 38.7043 106.772 38.7043C110.765 38.7043 112.719 37.4064 112.719 34.8071V29.2641H112.723Z" fill="#1C1A30"/>
<path d="M124.162 30.6584C124.162 23.1634 128.021 18.791 134.769 18.791C141.118 18.791 144.755 22.6435 144.755 29.8081C144.755 30.8926 144.709 31.8462 144.621 32.7551H128.748C129.566 36.587 132.54 38.6079 137.266 38.6079C139.206 38.6005 141.14 38.3975 143.037 38.002L143.615 42.0301C141.347 42.4487 139.042 42.6528 136.734 42.6395C128.702 42.6154 124.162 38.3704 124.162 30.6584ZM140.494 29.2297C140.494 25.0983 138.377 22.8191 134.811 22.8191C131.174 22.8191 128.931 25.1361 128.554 29.2297H140.494Z" fill="#1C1A30"/>
<path d="M167.227 24.6369C167.227 23.036 166.652 22.2545 165.407 22.2545C163.855 22.2545 163.1 23.2873 163.1 25.3737V42.1816H159.107V24.2031C159.107 22.9063 158.485 22.2568 157.241 22.2545C155.736 22.2545 154.983 23.2942 154.98 25.3737V42.1816H150.264V19.2213H154.437L154.748 22.0823H155.1C155.28 19.872 156.568 18.791 159.139 18.791C161.114 18.791 162.49 19.872 162.935 22.0823H163.316C163.45 20.3058 164.779 18.791 167.266 18.791C170.504 18.791 171.926 20.3919 171.926 24.2031V42.1816H167.227V24.6369Z" fill="#1C1A30"/>
<path d="M219.248 27.2363C219.248 24.482 217.696 22.9052 215.016 22.9052C211.333 22.9052 209.467 25.0053 209.467 29.2744V42.1816H204.783V19.2213H209.04L209.418 23.3803H209.929C210.194 20.3058 212.194 18.791 216.144 18.791C221.114 18.791 223.954 21.8654 223.954 27.2363V42.1816H219.248V27.2363Z" fill="#1C1A30"/>
<path d="M230.688 30.6584C230.688 23.1634 234.568 18.791 241.294 18.791C247.643 18.791 251.28 22.6435 251.28 29.8081C251.28 30.8926 251.238 31.8462 251.15 32.7551H235.273C236.095 36.587 239.068 38.6079 243.795 38.6079C245.735 38.6005 247.669 38.3975 249.566 38.002L250.141 42.0301C247.873 42.4487 245.57 42.6528 243.262 42.6395C235.231 42.6154 230.688 38.3704 230.688 30.6584ZM247.023 29.2297C247.023 25.0983 244.906 22.8191 241.34 22.8191C237.7 22.8191 235.46 25.1361 235.083 29.2297H247.023Z" fill="#1C1A30"/>
<path d="M198.878 38.4117V42.1782H177.971V38.4117H186.994V22.5506L179.587 24.4269V21.1631L186.994 19.2213H191.703V38.4117H198.878Z" fill="#1C1A30"/>
<path d="M185.739 12.3942C185.739 11.7603 185.931 11.1406 186.292 10.6134C186.653 10.0863 187.166 9.67551 187.766 9.43291C188.366 9.19031 189.026 9.12684 189.663 9.25051C190.3 9.37419 190.886 9.67946 191.345 10.1277C191.804 10.576 192.117 11.1471 192.244 11.7689C192.37 12.3906 192.305 13.0351 192.057 13.6208C191.808 14.2065 191.387 14.7071 190.847 15.0593C190.307 15.4115 189.672 15.5995 189.023 15.5995C188.591 15.6004 188.164 15.5181 187.765 15.3573C187.366 15.1966 187.004 14.9605 186.699 14.6627C186.393 14.3649 186.152 14.0112 185.987 13.6219C185.822 13.2326 185.738 12.8154 185.739 12.3942Z" fill="#1C1A30"/>
<path d="M81.2062 28.4206C80.7098 28.4206 80.2247 28.5643 79.8121 28.8336C79.3995 29.1029 79.0781 29.4856 78.8885 29.9333C78.6989 30.381 78.6496 30.8735 78.747 31.3485C78.8443 31.8236 79.0839 32.2597 79.4353 32.6018C79.7867 32.9439 80.2343 33.1764 80.7212 33.2701C81.2082 33.3638 81.7127 33.3143 82.1708 33.128C82.629 32.9417 83.0201 32.6268 83.2949 32.2234C83.5696 31.8199 83.7155 31.346 83.7141 30.8616C83.7348 30.5352 83.6841 30.2082 83.5653 29.9024C83.4465 29.5966 83.2624 29.319 83.0251 29.0881C82.7878 28.8572 82.5029 28.6782 82.1893 28.5631C81.8757 28.448 81.5405 28.3994 81.2062 28.4206ZM81.2062 28.4206C80.7098 28.4206 80.2247 28.5643 79.8121 28.8336C79.3995 29.1029 79.0781 29.4856 78.8885 29.9333C78.6989 30.381 78.6496 30.8735 78.747 31.3485C78.8443 31.8236 79.0839 32.2597 79.4353 32.6018C79.7867 32.9439 80.2343 33.1764 80.7212 33.2701C81.2082 33.3638 81.7127 33.3143 82.1708 33.128C82.629 32.9417 83.0201 32.6268 83.2949 32.2234C83.5696 31.8199 83.7155 31.346 83.7141 30.8616C83.7348 30.5352 83.6841 30.2082 83.5653 29.9024C83.4465 29.5966 83.2624 29.319 83.0251 29.0881C82.7878 28.8572 82.5029 28.6782 82.1893 28.5631C81.8757 28.448 81.5405 28.3994 81.2062 28.4206ZM81.2062 28.4206C80.7098 28.4206 80.2247 28.5643 79.8121 28.8336C79.3995 29.1029 79.0781 29.4856 78.8885 29.9333C78.6989 30.381 78.6496 30.8735 78.747 31.3485C78.8443 31.8236 79.0839 32.2597 79.4353 32.6018C79.7867 32.9439 80.2343 33.1764 80.7212 33.2701C81.2082 33.3638 81.7127 33.3143 82.1708 33.128C82.629 32.9417 83.0201 32.6268 83.2949 32.2234C83.5696 31.8199 83.7155 31.346 83.7141 30.8616C83.7348 30.5352 83.6841 30.2082 83.5653 29.9024C83.4465 29.5966 83.2624 29.319 83.0251 29.0881C82.7878 28.8572 82.5029 28.6782 82.1893 28.5631C81.8757 28.448 81.5405 28.3994 81.2062 28.4206Z" fill="#1C1A30"/>
<path d="M81.7 18.8013C81.5377 18.8013 81.372 18.8013 81.2062 18.8013C81.0404 18.8013 80.8711 18.8013 80.7124 18.8013C74.9064 19.0148 71.9987 23.0314 71.9893 30.8512C71.9893 38.5047 74.9064 42.3847 80.7124 42.5913C80.8711 42.5913 81.0404 42.5913 81.2062 42.5913C81.372 42.5913 81.5377 42.5913 81.7 42.5913C87.506 42.3847 90.4266 38.5047 90.4266 30.8512C90.4266 23.0257 87.506 19.0148 81.7 18.8013ZM81.4813 39.5926C81.3896 39.5926 81.2979 39.5926 81.2027 39.5926C81.1074 39.5926 81.0157 39.5926 80.924 39.5926C78.1021 39.4205 76.6912 36.5147 76.6912 30.8512C76.6912 24.9709 78.1021 21.9756 80.924 21.7931C81.0157 21.7931 81.1074 21.7931 81.2027 21.7931C81.2979 21.7931 81.3896 21.7931 81.4813 21.7931C84.3032 21.9756 85.7141 24.9709 85.7141 30.8512C85.7141 36.525 84.3032 39.4308 81.4813 39.5926Z" fill="#1C1A30"/>
<path d="M46.8323 30.2246C46.8323 22.733 51.1145 18.3572 58.7688 18.3572C63.3543 18.3572 66.7582 20.0786 68.155 23.1221L64.5501 25.7868C63.9413 24.7758 63.0721 23.9378 62.0288 23.3562C60.9855 22.7746 59.8045 22.4695 58.603 22.4714C54.2538 22.4714 51.7247 25.2016 51.7247 30.0077C51.7247 35.2512 54.5183 38.0674 59.4848 38.0674C61.8033 38.0575 64.1174 37.8687 66.4054 37.5028L66.9381 41.5309C64.305 42.0073 61.6297 42.2253 58.9522 42.1816C51.2238 42.1816 46.8323 37.9366 46.8323 30.2246Z" fill="#1C1A30"/>
<path d="M11.2557 12.5422L0 11.3648L1.54144 48L11.2557 47.067V43.2764L5.62609 43.4073L4.98412 15.1588L11.2557 15.3309V12.5422Z" fill="#873DF8"/>
<path d="M19.5662 12.5422L30.8219 11.3648L29.2804 48L19.5662 47.067V43.2764L25.1923 43.4073L25.8378 15.1588L19.5662 15.3309V12.5422Z" fill="#873DF8"/>
<path d="M15.4074 0C13.0758 0 11.5273 1.5114 11.5273 3.78712C11.5273 6.06283 13.0723 7.57424 15.4074 7.57424C17.7425 7.57424 19.2875 6.06283 19.2875 3.78712C19.2875 1.5114 17.7354 0 15.4074 0ZM15.4074 0C13.0758 0 11.5273 1.5114 11.5273 3.78712C11.5273 6.06283 13.0723 7.57424 15.4074 7.57424C17.7425 7.57424 19.2875 6.06283 19.2875 3.78712C19.2875 1.5114 17.7354 0 15.4074 0ZM15.4074 0C13.0758 0 11.5273 1.5114 11.5273 3.78712C11.5273 6.06283 13.0723 7.57424 15.4074 7.57424C17.7425 7.57424 19.2875 6.06283 19.2875 3.78712C19.2875 1.5114 17.7354 0 15.4074 0Z" fill="#873DF8"/>
</g>
<defs>
<clipPath id="clip0_90_689">
<rect width="251.294" height="48" fill="white"/>
</clipPath>
</defs>
</svg>
