<svg width="70" height="97" viewBox="0 0 70 97" fill="none" xmlns="http://www.w3.org/2000/svg">
<path d="M0 49.3722V46.2222C4.37432 46.1972 7.36727 45.3847 8.97886 43.7847C10.616 42.1597 11.4346 39.2347 11.4346 35.0097V17.9097C11.4346 14.9348 11.7288 12.3598 12.3172 10.1848C12.9311 8.00976 13.8776 6.20976 15.1566 4.78477C16.4357 3.33477 18.0856 2.25976 20.1065 1.55976C22.1274 0.859765 24.5576 0.509766 27.397 0.509766V4.55977C24.6343 4.53476 22.396 4.99726 20.6821 5.94726C18.9937 6.87226 17.7531 8.32226 16.9601 10.2973C16.1927 12.2723 15.8089 14.8098 15.8089 17.9097V36.0222C15.8089 38.3222 15.5531 40.3097 15.0415 41.9847C14.5555 43.6597 13.7241 45.0472 12.5474 46.1472C11.3707 47.2222 9.75908 48.0347 7.71261 48.5847C5.66615 49.1097 3.09528 49.3722 0 49.3722ZM27.397 96.5096C24.5576 96.5096 22.1274 96.1597 20.1065 95.4596C18.0856 94.7597 16.4357 93.6846 15.1566 92.2346C13.8776 90.8097 12.9311 89.0097 12.3172 86.8347C11.7288 84.6597 11.4346 82.0847 11.4346 79.1097V62.0097C11.4346 57.7847 10.616 54.8722 8.97886 53.2722C7.36727 51.6472 4.37432 50.8222 0 50.7972V47.6472C3.09528 47.6722 5.66615 47.9597 7.71261 48.5097C9.75908 49.0347 11.3707 49.8347 12.5474 50.9097C13.7241 51.9847 14.5555 53.3597 15.0415 55.0347C15.5531 56.7097 15.8089 58.6972 15.8089 60.9972V79.1097C15.8089 82.2097 16.1927 84.7472 16.9601 86.7222C17.7531 88.6972 18.9937 90.1472 20.6821 91.0722C22.396 91.9972 24.6343 92.4597 27.397 92.4597V96.5096ZM0 50.7972V46.2222H8.55678V50.7972H0Z" fill="#873DF8"/>
<path d="M69.3496 47.6473V50.7973C64.9753 50.8223 61.9695 51.6473 60.3323 53.2723C58.7207 54.8723 57.9149 57.7848 57.9149 62.0098V79.1098C57.9149 82.0848 57.608 84.6598 56.994 86.8348C56.4057 89.0098 55.472 90.8098 54.1929 92.2348C52.9139 93.6848 51.2639 94.7598 49.2431 95.4598C47.2222 96.1598 44.792 96.5098 41.9525 96.5098V92.4598C44.7408 92.4598 46.9792 91.9973 48.6675 91.0723C50.3558 90.1473 51.5837 88.6973 52.3511 86.7223C53.1441 84.7473 53.5406 82.2098 53.5406 79.1098V60.9973C53.5406 58.6973 53.7836 56.7098 54.2697 55.0348C54.7813 53.3598 55.6255 51.9848 56.8022 50.9098C57.9789 49.8098 59.5905 48.9973 61.637 48.4723C63.6834 47.9223 66.2543 47.6473 69.3496 47.6473ZM41.9525 0.509888C44.792 0.509888 47.2222 0.859887 49.2431 1.55989C51.2639 2.25989 52.9139 3.33489 54.1929 4.78489C55.472 6.20988 56.4057 8.00988 56.994 10.1849C57.608 12.3599 57.9149 14.9349 57.9149 17.9099V35.0099C57.9149 39.2348 58.7207 42.1598 60.3323 43.7848C61.9695 45.3848 64.9753 46.1973 69.3496 46.2223V49.3723C66.2543 49.3473 63.6834 49.0723 61.637 48.5473C59.5905 47.9973 57.9789 47.1848 56.8022 46.1098C55.6255 45.0348 54.7813 43.6598 54.2697 41.9848C53.7836 40.3098 53.5406 38.3223 53.5406 36.0223V17.9099C53.5406 14.8099 53.1441 12.2724 52.3511 10.2974C51.5837 8.32238 50.3558 6.87238 48.6675 5.94738C46.9792 4.99739 44.7408 4.53489 41.9525 4.55989V0.509888ZM69.3496 46.2223V50.7973H60.7928V46.2223H69.3496Z" fill="#873DF8"/>
</svg>
