<svg width="17" height="16" viewBox="0 0 17 16" fill="none" xmlns="http://www.w3.org/2000/svg">
<path d="M8.00195 0C5.83095 0 5.55795 0.01 4.70495 0.048C3.85195 0.088 3.27095 0.222 2.76195 0.42C2.22805 0.620819 1.74444 0.935826 1.34495 1.343C0.938029 1.7427 0.62306 2.22624 0.421953 2.76C0.223953 3.268 0.0889531 3.85 0.0499531 4.7C0.0119531 5.555 0.00195312 5.827 0.00195312 8.001C0.00195312 10.173 0.0119531 10.445 0.0499531 11.298C0.0899531 12.15 0.223953 12.731 0.421953 13.24C0.626953 13.766 0.899953 14.212 1.34495 14.657C1.78895 15.102 2.23495 15.376 2.76095 15.58C3.27095 15.778 3.85095 15.913 4.70295 15.952C5.55695 15.99 5.82895 16 8.00195 16C10.175 16 10.446 15.99 11.3 15.952C12.151 15.912 12.734 15.778 13.243 15.58C13.7765 15.3791 14.2598 15.0641 14.659 14.657C15.104 14.212 15.377 13.766 15.582 13.24C15.779 12.731 15.914 12.15 15.954 11.298C15.992 10.445 16.002 10.173 16.002 8C16.002 5.827 15.992 5.555 15.954 4.701C15.914 3.85 15.779 3.268 15.582 2.76C15.3809 2.22623 15.0659 1.74268 14.659 1.343C14.2596 0.935676 13.7759 0.620645 13.242 0.42C12.732 0.222 12.15 0.087 11.299 0.048C10.445 0.01 10.174 0 7.99995 0H8.00295H8.00195ZM7.28495 1.442H8.00295C10.139 1.442 10.392 1.449 11.235 1.488C12.015 1.523 12.439 1.654 12.721 1.763C13.094 1.908 13.361 2.082 13.641 2.362C13.921 2.642 14.094 2.908 14.239 3.282C14.349 3.563 14.479 3.987 14.514 4.767C14.553 5.61 14.561 5.863 14.561 7.998C14.561 10.133 14.553 10.387 14.514 11.23C14.479 12.01 14.348 12.433 14.239 12.715C14.1107 13.0624 13.906 13.3764 13.64 13.634C13.36 13.914 13.094 14.087 12.72 14.232C12.44 14.342 12.016 14.472 11.235 14.508C10.392 14.546 10.139 14.555 8.00295 14.555C5.86695 14.555 5.61295 14.546 4.76995 14.508C3.98995 14.472 3.56695 14.342 3.28495 14.232C2.93745 14.1039 2.62308 13.8996 2.36495 13.634C2.0987 13.376 1.89368 13.0617 1.76495 12.714C1.65595 12.433 1.52495 12.009 1.48995 11.229C1.45195 10.386 1.44395 10.133 1.44395 7.996C1.44395 5.86 1.45195 5.608 1.48995 4.765C1.52595 3.985 1.65595 3.561 1.76595 3.279C1.91095 2.906 2.08495 2.639 2.36495 2.359C2.64495 2.079 2.91095 1.906 3.28495 1.761C3.56695 1.651 3.98995 1.521 4.76995 1.485C5.50795 1.451 5.79395 1.441 7.28495 1.44V1.442ZM12.273 2.77C12.1469 2.77 12.022 2.79483 11.9056 2.84308C11.7891 2.89132 11.6833 2.96203 11.5941 3.05118C11.505 3.14032 11.4343 3.24615 11.386 3.36262C11.3378 3.4791 11.313 3.60393 11.313 3.73C11.313 3.85607 11.3378 3.9809 11.386 4.09738C11.4343 4.21385 11.505 4.31968 11.5941 4.40882C11.6833 4.49797 11.7891 4.56868 11.9056 4.61692C12.022 4.66517 12.1469 4.69 12.273 4.69C12.5276 4.69 12.7717 4.58886 12.9518 4.40882C13.1318 4.22879 13.233 3.98461 13.233 3.73C13.233 3.47539 13.1318 3.23121 12.9518 3.05118C12.7717 2.87114 12.5276 2.77 12.273 2.77ZM8.00295 3.892C7.45802 3.8835 6.91685 3.98349 6.41093 4.18614C5.90501 4.3888 5.44447 4.69007 5.0561 5.07242C4.66774 5.45478 4.35932 5.91057 4.14879 6.41326C3.93827 6.91595 3.82985 7.4555 3.82985 8.0005C3.82985 8.5455 3.93827 9.08505 4.14879 9.58774C4.35932 10.0904 4.66774 10.5462 5.0561 10.9286C5.44447 11.3109 5.90501 11.6122 6.41093 11.8149C6.91685 12.0175 7.45802 12.1175 8.00295 12.109C9.08149 12.0922 10.1102 11.6519 10.8669 10.8833C11.6237 10.1146 12.0479 9.07917 12.0479 8.0005C12.0479 6.92183 11.6237 5.88641 10.8669 5.11775C10.1102 4.34909 9.08149 3.90883 8.00295 3.892ZM8.00295 5.333C8.71029 5.333 9.38865 5.61399 9.88881 6.11415C10.389 6.61431 10.67 7.29267 10.67 8C10.67 8.70733 10.389 9.38569 9.88881 9.88585C9.38865 10.386 8.71029 10.667 8.00295 10.667C7.29562 10.667 6.61726 10.386 6.1171 9.88585C5.61694 9.38569 5.33595 8.70733 5.33595 8C5.33595 7.29267 5.61694 6.61431 6.1171 6.11415C6.61726 5.61399 7.29562 5.333 8.00295 5.333Z" fill="white"/>
</svg>
