<svg width="17" height="16" viewBox="0 0 17 16" fill="none" xmlns="http://www.w3.org/2000/svg">
<path d="M0.00195312 1.146C0.00195312 0.513 0.527953 0 1.17695 0H14.827C15.476 0 16.002 0.513 16.002 1.146V14.854C16.002 15.487 15.476 16 14.827 16H1.17695C0.527953 16 0.00195312 15.487 0.00195312 14.854V1.146ZM4.94495 13.394V6.169H2.54395V13.394H4.94495ZM3.74495 5.182C4.58195 5.182 5.10295 4.628 5.10295 3.934C5.08795 3.225 4.58295 2.686 3.76095 2.686C2.93895 2.686 2.40195 3.226 2.40195 3.934C2.40195 4.628 2.92295 5.182 3.72895 5.182H3.74495ZM8.65295 13.394V9.359C8.65295 9.143 8.66895 8.927 8.73295 8.773C8.90595 8.342 9.30095 7.895 9.96495 7.895C10.834 7.895 11.181 8.557 11.181 9.529V13.394H13.582V9.25C13.582 7.03 12.398 5.998 10.818 5.998C9.54395 5.998 8.97295 6.698 8.65295 7.191V7.216H8.63695C8.64226 7.20765 8.6476 7.19932 8.65295 7.191V6.169H6.25295C6.28295 6.847 6.25295 13.394 6.25295 13.394H8.65295Z" fill="white"/>
</svg>
