<svg width="68" height="97" viewBox="0 0 68 97" fill="none" xmlns="http://www.w3.org/2000/svg">
<path d="M22.4479 61.9616V57.6343H13.201C9.25504 57.6343 6.90477 55.5734 6.37737 51.6572C6.35574 51.4949 6.32328 51.3353 6.2773 51.0784C4.81413 51.0784 3.36989 51.0784 1.92565 51.0784C0.481413 51.0784 0 50.6321 0 49.1446C0 43.1351 0 37.1264 0 31.1187C0 29.5771 0.37864 29.1876 1.8932 29.1768C3.34014 29.1768 4.78438 29.1768 6.25296 29.1768C6.37467 28.4655 6.43417 27.8245 6.59915 27.2133C6.95282 25.8806 7.73925 24.7032 8.83486 23.866C9.93048 23.0289 11.2732 22.5795 12.652 22.5885C17.9475 22.5641 23.2458 22.5885 28.5413 22.5885H29.7773C29.7773 20.7953 29.8071 19.0536 29.7449 17.3146C29.7449 17.0657 29.3067 16.7926 29.0254 16.6006C26.0504 14.5884 24.5899 11.781 25.0037 8.21639C25.4175 4.65177 27.4811 2.13111 30.9159 0.949211C32.9203 0.286016 35.0977 0.375954 37.0406 1.20219C38.9835 2.02843 40.5587 3.53435 41.4714 5.43811C42.3842 7.34187 42.5719 9.51301 41.9995 11.5452C41.4271 13.5774 40.1338 15.3314 38.3616 16.4788C37.6692 16.9197 37.4285 17.3687 37.461 18.1557C37.5205 19.5972 37.4772 21.0415 37.4772 22.5858H53.8344C58.059 22.5858 60.3552 24.5871 60.9096 28.7495C60.9231 28.8468 60.9556 28.9415 61.0151 29.1822C62.3944 29.1822 63.7981 29.1822 65.1991 29.1822C66.9273 29.1822 67.2707 29.5311 67.2707 31.262C67.2707 37.1688 67.2707 43.0756 67.2707 48.9824C67.2707 50.7214 66.8867 51.0919 65.1071 51.0946H61.0151C60.9421 51.5355 60.8744 51.9222 60.8149 52.3117C60.6136 53.7801 59.8902 55.127 58.7773 56.1058C57.6643 57.0847 56.2361 57.6301 54.754 57.6424C51.5085 57.683 48.2766 57.6667 45.0365 57.6776C44.9764 57.689 44.9175 57.7062 44.8607 57.7289V61.9697H46.0832C50.9081 61.9697 55.7331 61.9535 60.5553 61.9697C64.009 61.9859 66.4648 63.8629 67.1436 66.9515C67.2475 67.516 67.2919 68.0898 67.2762 68.6635C67.2762 77.2695 67.2762 85.8763 67.2762 94.484C67.2762 96.1068 66.8678 96.5098 65.2477 96.5098H1.99056C0.430027 96.5098 0.00540914 96.0933 0.00270457 94.5462C0.00270457 85.9403 0.00270457 77.3335 0.00270457 68.7257C0.00270457 64.5553 2.55852 61.9913 6.76413 61.9643C11.5539 61.94 16.3437 61.9643 21.1362 61.9643L22.4479 61.9616ZM33.5367 54.808H54.1725C56.75 54.808 58.0833 53.4557 58.086 50.862C58.086 43.7057 58.086 36.5504 58.086 29.3959C58.086 26.7535 56.7337 25.4147 54.0968 25.4147H13.2091C10.5478 25.4147 9.19553 26.7373 9.19553 29.3742C9.19553 36.5269 9.19553 43.6814 9.19553 50.8377C9.19553 53.4963 10.5208 54.808 13.1848 54.808H33.5367ZM14.0016 93.6321C14.0016 89.3724 14.0016 85.2263 14.0016 81.0775C14.0016 79.6008 14.4613 79.1275 15.9245 79.1275C27.7308 79.1275 39.5408 79.1275 51.3544 79.1275C52.8256 79.1275 53.2854 79.5954 53.2881 81.0694C53.2881 84.8828 53.2881 88.6963 53.2881 92.5097V93.6132H64.4553V92.6612C64.4553 84.6646 64.4553 76.6672 64.4553 68.6689C64.4553 66.1456 63.1273 64.8041 60.5742 64.8014C42.6303 64.8014 24.6846 64.8014 6.73708 64.8014C4.13799 64.8014 2.85062 66.1537 2.84791 68.7609C2.84791 76.7267 2.84791 84.6908 2.84791 92.653C2.84791 92.9749 2.88037 93.2967 2.8993 93.6321H14.0016ZM50.4159 82.0376H16.9009V93.6023H50.4159V82.0376ZM33.6881 3.33464C32.5248 3.32394 31.3846 3.65886 30.4119 4.29696C29.4392 4.93505 28.6779 5.84759 28.2244 6.91889C27.7709 7.99018 27.6458 9.172 27.8647 10.3145C28.0837 11.457 28.637 12.5088 29.4545 13.3365C30.2719 14.1642 31.3167 14.7306 32.4564 14.9638C33.5961 15.197 34.7794 15.0866 35.8563 14.6465C36.9331 14.2064 37.8551 13.4565 38.5053 12.4919C39.1554 11.5272 39.5045 10.3912 39.5083 9.2279C39.5106 7.67709 38.9003 6.18815 37.8103 5.08499C36.7203 3.98184 35.2388 3.35374 33.6881 3.33735V3.33464ZM25.4229 57.6911V61.9129H41.8694V57.6911H25.4229ZM6.30165 48.1926V32.068H2.89659V48.1926H6.30165ZM64.3823 48.1926V32.0788H61.0016V48.2034L64.3823 48.1926ZM32.6955 17.9501V22.4965H34.6185V17.9501H32.6955Z" fill="#00BAEB"/>
<path d="M47.0593 30.6157C48.3031 30.6256 49.5159 31.0049 50.5437 31.7055C51.5714 32.406 52.3678 33.3963 52.8316 34.5504C53.2954 35.7045 53.4058 36.9704 53.1486 38.1874C52.8915 39.4043 52.2784 40.5174 51.3874 41.3852C50.4963 42.253 49.3674 42.8364 48.1441 43.0613C46.9208 43.2862 45.6582 43.1425 44.5168 42.6483C43.3753 42.1541 42.4065 41.3319 41.7333 40.286C41.0602 39.24 40.713 38.0176 40.7361 36.774C40.7617 35.1201 41.4414 33.5436 42.6264 32.3895C43.8114 31.2354 45.4053 30.5977 47.0593 30.6157ZM43.5705 36.8362C43.5579 37.7479 43.908 38.6273 44.5438 39.2808C45.1796 39.9343 46.0489 40.3085 46.9606 40.3211C47.8723 40.3336 48.7516 39.9835 49.4052 39.3477C50.0587 38.7119 50.4329 37.8426 50.4455 36.9309C50.458 36.0192 50.1079 35.1399 49.4721 34.4864C48.8363 33.8328 47.967 33.4586 47.0553 33.4461C46.1436 33.4335 45.2643 33.7836 44.6107 34.4194C43.9572 35.0552 43.583 35.9246 43.5705 36.8362Z" fill="#00BAEB"/>
<path d="M20.2544 30.6156C21.4987 30.6109 22.7164 30.9762 23.7526 31.6651C24.7888 32.3541 25.5967 33.3355 26.0737 34.4848C26.5507 35.6341 26.6753 36.8992 26.4315 38.1194C26.1878 39.3396 25.5867 40.4598 24.7047 41.3376C23.8228 42.2154 22.6997 42.8111 21.4783 43.049C20.257 43.287 18.9924 43.1564 17.8455 42.6739C16.6985 42.1914 15.7209 41.3788 15.0369 40.3393C14.3529 39.2998 13.9934 38.0804 14.0041 36.8362C14.0127 35.1839 14.6749 33.6021 15.8461 32.4366C17.0172 31.271 18.6021 30.6163 20.2544 30.6156ZM16.8412 36.8362C16.8354 37.2876 16.9185 37.7357 17.0858 38.155C17.2532 38.5743 17.5014 38.9566 17.8165 39.2799C18.1316 39.6033 18.5072 39.8614 18.922 40.0395C19.3368 40.2177 19.7827 40.3124 20.2341 40.3183C21.1458 40.3301 22.0248 39.9793 22.6779 39.343C23.0012 39.028 23.2593 38.6523 23.4375 38.2375C23.6157 37.8227 23.7104 37.3768 23.7162 36.9254C23.7281 36.0137 23.3773 35.1347 22.741 34.4817C22.1047 33.8286 21.235 33.4551 20.3234 33.4433C19.8719 33.4374 19.4238 33.5205 19.0045 33.6879C18.5852 33.8552 18.203 34.1035 17.8796 34.4185C17.2266 35.0548 16.8531 35.9245 16.8412 36.8362Z" fill="#00BAEB"/>
<path d="M33.6095 47.8112C36.2762 47.8112 38.9402 47.8112 41.6042 47.8112C42.8105 47.8112 43.4352 48.3061 43.4352 49.2094C43.4352 50.1127 42.8051 50.6347 41.6151 50.6374C36.2834 50.6482 30.9536 50.6482 25.6256 50.6374C24.4465 50.6374 23.8217 50.0803 23.8487 49.1689C23.8758 48.2574 24.4789 47.8166 25.6175 47.8166C28.2815 47.8112 30.9455 47.8112 33.6095 47.8112Z" fill="#00BAEB"/>
<path d="M58.543 66.8515C57.5451 66.8825 56.5988 67.3019 55.9057 68.0205C55.2125 68.739 54.8274 69.6999 54.8323 70.6982C54.8373 71.6966 55.2319 72.6536 55.9321 73.3652C56.6323 74.0769 57.5827 74.487 58.5809 74.5081C59.0921 74.5189 59.6003 74.4273 60.0755 74.2385C60.5508 74.0498 60.9834 73.7678 61.3479 73.4091C61.7124 73.0505 62.0013 72.6225 62.1978 72.1504C62.3942 71.6783 62.4941 71.1717 62.4916 70.6603C62.489 70.149 62.3841 69.6434 62.1831 69.1732C61.982 68.7031 61.6888 68.278 61.3207 67.923C60.9527 67.568 60.5173 67.2903 60.0403 67.1062C59.5632 66.9222 59.0541 66.8356 58.543 66.8515ZM58.8378 71.7684C58.8099 71.771 58.7819 71.771 58.754 71.7684C58.5614 71.7673 58.3734 71.71 58.2131 71.6034C58.0406 71.4891 57.9097 71.3221 57.8398 71.1274C57.7985 71.0195 57.7774 70.9049 57.7776 70.7893C57.7773 70.5965 57.8337 70.4078 57.9398 70.2468C58.046 70.0859 58.1972 69.9597 58.3746 69.8841C58.552 69.8086 58.7477 69.7869 58.9374 69.8219C59.127 69.8568 59.3022 69.9468 59.4409 70.0807C59.5778 70.2109 59.674 70.3779 59.718 70.5616C59.7621 70.7453 59.752 70.9378 59.6891 71.1159C59.6262 71.294 59.5132 71.4501 59.3636 71.5654C59.2139 71.6807 59.0342 71.7502 58.8459 71.7657L58.8378 71.7684Z" fill="#00BAEB"/>
<path d="M8.6682 66.8433C7.66977 66.8698 6.72114 67.2851 6.02434 68.0006C5.32754 68.7162 4.93762 69.6755 4.93762 70.6743C4.93762 71.6731 5.32754 72.6324 6.02434 73.348C6.72114 74.0635 7.66977 74.4788 8.6682 74.5053C9.17986 74.5189 9.68906 74.4299 10.1658 74.2435C10.6424 74.0571 11.077 73.777 11.4437 73.42C11.8104 73.0629 12.1018 72.6359 12.3008 72.1644C12.4998 71.6928 12.6024 71.1861 12.6024 70.6743C12.6024 70.1625 12.4998 69.6558 12.3008 69.1842C12.1018 68.7127 11.8104 68.2857 11.4437 67.9286C11.077 67.5716 10.6424 67.2915 10.1658 67.1051C9.68906 66.9187 9.17986 66.8297 8.6682 66.8433ZM9.70675 70.9732C9.6593 71.212 9.52503 71.4247 9.32987 71.5703C9.13471 71.7159 8.89252 71.7841 8.65007 71.7615C8.40763 71.739 8.18213 71.6274 8.01714 71.4484C7.85216 71.2693 7.75939 71.0354 7.75676 70.7919C7.75712 70.7367 7.76164 70.6815 7.77028 70.627C7.79593 70.4766 7.85653 70.3345 7.94719 70.2119C8.03786 70.0892 8.15606 69.9896 8.29226 69.9211C8.42872 69.8513 8.57986 69.8152 8.73311 69.8156C8.80503 69.8154 8.87674 69.8235 8.94677 69.8399C9.16898 69.8843 9.36903 70.0041 9.51297 70.1791C9.65691 70.3541 9.73588 70.5735 9.7365 70.8001C9.73166 70.8585 9.72171 70.9164 9.70675 70.9732Z" fill="#00BAEB"/>
</svg>
