<svg width="108" height="97" viewBox="0 0 108 97" fill="none" xmlns="http://www.w3.org/2000/svg">
<g clip-path="url(#clip0_160_7)">
<path d="M15.0331 4.64167C17.1846 3.59484 19.2727 3.49566 21.1708 5.16509C21.6722 5.60586 21.9972 6.26701 22.438 6.76288C22.6529 7.00255 22.989 7.27803 23.2645 7.27803C30.584 7.27803 37.9036 7.27803 45.2893 7.25324C46.6253 2.87583 49.4904 0.379962 54.2314 0.509439C57.0248 0.594838 60.6832 2.29456 62.0386 7.26701C62.3141 7.26701 62.6198 7.30834 62.9201 7.30834C69.865 7.30834 76.8072 7.29181 83.7493 7.30834C84.4022 7.30834 84.7631 7.15958 85.0882 6.52597C85.6093 5.52652 86.4553 4.73443 87.4869 4.28023C88.5185 3.82604 89.674 3.73684 90.7631 4.02735C91.8367 4.30456 92.7893 4.92727 93.474 5.79945C94.1587 6.67163 94.5375 7.74484 94.5519 8.85358C94.5663 9.96232 94.2156 11.045 93.5538 11.9347C92.892 12.8244 91.9559 13.4716 90.8898 13.7767C89.8296 14.1004 88.6907 14.0543 87.6601 13.6459C86.6295 13.2374 85.7683 12.4909 85.2176 11.5287C84.7934 10.7601 84.3168 10.5976 83.5234 10.6059C79.9422 10.6362 76.3747 10.6059 72.7989 10.6059C72.4656 10.6059 72.1322 10.6059 71.6336 10.6307C88.5675 18.1403 98.5923 30.8648 101.887 49.2092C102.964 49.1706 104.154 49.0935 105.344 49.0935C106.777 49.0935 107.35 49.6665 107.355 51.0935C107.372 54.256 107.372 57.4176 107.355 60.5783C107.355 62.0742 106.804 62.6114 105.273 62.6141C102.151 62.6141 99.023 62.6141 95.8898 62.6141C94.4077 62.6141 93.843 62.0384 93.8347 60.5397C93.8127 57.4176 93.7998 54.29 93.7962 51.1568C93.7962 49.6279 94.3829 49.0659 95.9422 49.0742C96.7273 49.0742 97.5152 49.099 98.3113 49.1127C95.9835 30.8924 80.9917 14.6692 61.8623 11.4213C60.2672 15.3138 57.4546 17.559 53.1074 17.3662C49.6997 17.2147 47.3223 15.2753 45.5399 11.4351C28.5207 13.9144 11.7824 28.9502 9.01377 49.2064C9.93113 49.1568 10.8237 49.0659 11.7135 49.0742C12.9229 49.0879 13.5675 49.7271 13.5702 50.9364C13.5702 54.2422 13.5556 57.5416 13.5262 60.8345C13.5262 61.9061 12.9174 62.5811 11.9036 62.5866C8.23141 62.5866 4.56198 62.5508 0.884298 62.526L0.162534 61.7987C0.0838529 61.4298 0.0295572 61.0562 0 60.6802C0 57.4516 0 54.2284 0 50.9915C0 49.6444 0.606061 49.0632 1.99174 49.0824C3.18733 49.0824 4.38292 49.1678 5.47108 49.2119C8.77962 30.8813 18.7961 18.1403 35.5758 10.6003C31.6088 10.5315 27.6612 10.5838 23.7135 10.5645C22.9559 10.5645 22.5785 10.7904 22.2121 11.4516C21.5876 12.5752 20.5511 13.4123 19.3212 13.7865C18.0914 14.1606 16.7643 14.0425 15.6198 13.4571C14.4802 12.9008 13.5921 11.9354 13.1326 10.7534C12.673 9.57143 12.6759 8.25968 13.1405 7.07969C13.2479 6.8042 13.3278 6.51219 13.416 6.22845L15.0331 4.64167ZM57.3416 12.5756C57.823 12.0933 58.2041 11.5205 58.4628 10.8901C58.7215 10.2598 58.8527 9.5844 58.8489 8.90303C58.845 8.22166 58.7062 7.5478 58.4404 6.9204C58.1746 6.293 57.7871 5.72449 57.3003 5.24773C56.3199 4.31075 55.0142 3.79085 53.6581 3.79753C52.302 3.80421 51.0014 4.33695 50.0303 5.28354C49.5487 5.76387 49.1666 6.33451 48.9059 6.96275C48.6452 7.591 48.511 8.26451 48.511 8.9447C48.511 9.6249 48.6452 10.2984 48.9059 10.9267C49.1666 11.5549 49.5487 12.1255 50.0303 12.6059C50.5083 13.0918 51.0788 13.4771 51.7082 13.7388C52.3376 14.0004 53.0131 14.1333 53.6947 14.1294C54.3763 14.1256 55.0502 13.9851 55.6766 13.7163C56.303 13.4475 56.8692 13.0559 57.3416 12.5645V12.5756ZM10.1433 52.5893H3.54821C3.54821 54.7381 3.53168 56.997 3.52066 59.143H10.1322L10.1433 52.5893ZM97.4242 52.5205C97.4242 54.7656 97.4242 57.0108 97.4242 59.0301L103.824 59.0521C103.824 56.9227 103.824 54.6802 103.824 52.5232L97.4242 52.5205ZM90.7108 10.1981C91.0396 9.87026 91.2256 9.4257 91.2282 8.96131C91.2308 8.49692 91.0497 8.05032 90.7245 7.71881C90.3941 7.42572 89.9651 7.26845 89.5236 7.27856C89.0821 7.28867 88.6607 7.46542 88.3441 7.77332C88.0275 8.08122 87.839 8.49749 87.8166 8.93857C87.7942 9.37964 87.9394 9.81288 88.2231 10.1513C88.3831 10.3183 88.5745 10.4519 88.7862 10.5447C88.998 10.6375 89.2261 10.6874 89.4572 10.6918C89.6884 10.6961 89.9181 10.6548 90.1332 10.5701C90.3484 10.4853 90.5446 10.3589 90.7108 10.1981ZM19.0854 7.71881C18.942 7.55726 18.7659 7.42795 18.5688 7.3394C18.3718 7.25084 18.1582 7.20506 17.9422 7.20506C17.7261 7.20506 17.5125 7.25084 17.3155 7.3394C17.1184 7.42795 16.9423 7.55726 16.7989 7.71881C16.4751 8.03939 16.2912 8.47491 16.287 8.93052C16.2829 9.38613 16.459 9.82491 16.7769 10.1513C16.9281 10.3167 17.1124 10.4485 17.3178 10.5382C17.5232 10.6279 17.7451 10.6734 17.9692 10.6718C18.1934 10.6703 18.4146 10.6217 18.6188 10.5291C18.8229 10.4366 19.0054 10.3023 19.1543 10.1348C19.4652 9.80582 19.6335 9.36737 19.6227 8.91489C19.6118 8.4624 19.4227 8.03251 19.0964 7.71881H19.0854Z" fill="#FF569F"/>
<path d="M33.9999 95.6366C34.0661 95.0003 34.022 94.3308 34.2121 93.7358C35.2718 90.43 36.3682 87.1417 37.5013 83.8708C37.6256 83.5567 37.6834 83.2202 37.6711 82.8826C37.6588 82.545 37.5766 82.2136 37.4297 81.9093C35.033 76.5953 32.6804 71.2565 30.2837 65.9314C30.0846 65.5371 29.9784 65.1025 29.9731 64.6608C29.9679 64.2191 30.0637 63.7821 30.2534 63.3832C36.1542 49.6752 42.0312 35.958 47.8842 22.2317C48.3526 21.1297 49.0192 20.6394 50.2341 20.6697C52.6033 20.733 54.9751 20.7082 57.347 20.6697C57.7819 20.6317 58.2167 20.7423 58.5805 20.9835C58.9443 21.2247 59.2155 21.5822 59.3498 21.9975C65.2947 35.8763 71.2506 49.7505 77.2176 63.6201C77.5812 64.4686 77.4297 65.1931 77.0771 65.981C74.7024 71.2702 72.3636 76.5733 69.9779 81.8598C69.8227 82.1777 69.7344 82.5241 69.7182 82.8776C69.7021 83.2311 69.7586 83.5841 69.8842 83.9149C71.0275 87.2206 72.1239 90.5485 73.2231 93.8735C73.8071 95.6366 73.179 96.5154 71.3195 96.5182C59.5656 96.5182 47.8117 96.5182 36.0578 96.5182C35.614 96.4964 35.1718 96.4513 34.7327 96.3832L33.9999 95.6366ZM51.9063 24.0498C51.2093 23.879 50.7245 23.9341 50.3801 24.7441C44.8135 37.8074 39.2359 50.8662 33.6473 63.9204C33.4817 64.3813 33.4905 64.8869 33.6721 65.3419C35.8512 70.3419 38.0798 75.3171 40.2837 80.3115C40.5592 80.9452 40.9008 81.138 41.5895 81.138C49.6703 81.1104 57.7447 81.1104 65.8126 81.138C66.5234 81.138 66.8347 80.8983 67.1046 80.284C69.2405 75.4135 71.4003 70.5558 73.584 65.711C73.7566 65.3664 73.8464 64.9862 73.8464 64.6008C73.8464 64.2154 73.7566 63.8352 73.584 63.4906C68.0468 50.6348 62.5371 37.7707 57.055 24.8983C56.6969 24.0719 56.2672 23.7771 55.5234 24.0361V54.0498C61.9641 55.6173 63.9311 61.2537 63.2864 65.1545C62.9321 67.4173 61.7891 69.482 60.0595 70.9835C58.33 72.485 56.1252 73.3266 53.8351 73.3596C51.5449 73.3925 49.3169 72.6147 47.5448 71.1636C45.7728 69.7126 44.5708 67.6817 44.1515 65.43C43.1873 60.2399 45.9586 56.1958 51.9283 54.0306C51.9228 44.0361 51.9201 34.0829 51.9173 24.0498H51.9063ZM37.9421 92.9204H69.3939C68.4848 90.1931 67.5344 87.3446 66.6198 84.5925L40.7245 84.576C39.8016 87.3611 38.8429 90.2124 37.9531 92.9176L37.9421 92.9204ZM49.157 59.1132C48.2572 60.0054 47.6422 61.1444 47.3899 62.3861C47.1376 63.6278 47.2593 64.9165 47.7395 66.0891C48.2198 67.2617 49.0371 68.2654 50.0879 68.9734C51.1388 69.6814 52.3761 70.0618 53.6432 70.0664C54.9103 70.071 56.1503 69.6997 57.2063 68.9994C58.2624 68.2991 59.087 67.3014 59.5758 66.1323C60.0646 64.9633 60.1957 63.6755 59.9524 62.432C59.7092 61.1884 59.1026 60.045 58.2093 59.1463C57.0136 57.9454 55.3907 57.2674 53.696 57.2607C52.0014 57.254 50.3732 57.9191 49.168 59.1105L49.157 59.1132Z" fill="#FF569F"/>
</g>
<defs>
<clipPath id="clip0_160_7">
<rect width="107.366" height="96" fill="white" transform="translate(0 0.509766)"/>
</clipPath>
</defs>
</svg>
